<svg fill="none" height="35" viewBox="0 0 30 35" width="30" xmlns="http://www.w3.org/2000/svg"><g fill="#fff"><path clip-rule="evenodd" d="m12.9846 31.506c0 .4056-.0577.758-.173 1.0571s-.2759.5564-.4819.7719c-.2059.2155-.453.3904-.7412.5247-.2883.1344-.6068.2408-.9555.3194s-.72067.1331-1.11602.1635-.80443.0456-1.22724.0456h-8.2117981v-10.4489h8.0635381c.32397 0 .64931.0127.97603.0381.32672.0253.63833.0722.93489.1406.2965.0685.5724.1635.8277.2852.2554.1217.4777.2814.6672.4791.1894.1977.3377.436.4448.7149.107.2788.1606.6083.1606.9886 0 .6793-.1812 1.218-.5436 1.616-.3625.398-.9335.6629-1.71324.7947.54914.0355 1.01994.1128 1.41254.2319.3926.1192.7125.2814.9596.4867.2471.2054.4283.4563.5436.7529s.173.6426.173 1.038zm-3.81354-4.4715c0-.1319-.02197-.2573-.06589-.3765-.04393-.1191-.12355-.2243-.23886-.3156-.11531-.0912-.27181-.1647-.46948-.2205-.19768-.0558-.45026-.0837-.75776-.0837h-4.50537v1.9621h4.50537c.3075 0 .56008-.0254.75776-.0761.19767-.0507.35417-.1191.46948-.2053s.19493-.1889.23886-.308c.04392-.1191.06589-.2446.06589-.3764zm.70834 4.1445c0-.2382-.04393-.4296-.13179-.5741-.08785-.1445-.22513-.256-.41182-.3346-.1867-.0786-.4283-.1306-.72481-.1559-.29652-.0254-.65069-.038-1.06251-.038h-4.41477v2.2129h4.41477c.41182 0 .76599-.0126 1.06251-.038.29651-.0253.53811-.0786.72481-.1597.18669-.0811.32397-.1939.41182-.3384.08786-.1445.13179-.3359.13179-.5742zm9.0501-3.2548 6.2597-3.9849h4.0936l-7.6188 5.0116 8.1294 5.4373h-4.4559l-6.408-4.3423v4.3423h-3.0722v-10.4489h3.0722z" fill-rule="evenodd"/><rect height="19.25" rx="1" width="3.44554" x="15.5049"/><rect height="13.125" rx="1" width="3.44554" x="7.75247" y="6.125"/><rect height="6.125" rx="1" width="3.44554" y="13.125"/></g></svg>