<svg width="18" height="17" viewBox="0 0 18 17" fill="none" xmlns="http://www.w3.org/2000/svg">
<path fill-rule="evenodd" clip-rule="evenodd" d="M16 4.75123H12.836C13.063 4.58568 13.258 4.4212 13.394 4.27381C14.2 3.40761 14.2 1.99777 13.394 1.13157C12.611 0.289931 11.245 0.288863 10.461 1.13157C10.028 1.59617 8.877 3.48771 9.036 4.75123H8.964C9.122 3.48771 7.972 1.59617 7.539 1.13157C6.755 0.288863 5.389 0.289931 4.606 1.13157C3.8 1.99777 3.8 3.40761 4.605 4.27381C4.742 4.4212 4.937 4.58568 5.164 4.75123H2C1.449 4.75123 1 5.2308 1 5.8193V8.48946C1 8.78424 1.224 9.02349 1.5 9.02349H2V15.4319C2 16.0204 2.449 16.4999 3 16.4999H15C15.551 16.4999 16 16.0204 16 15.4319V9.02349H16.5C16.776 9.02349 17 8.78424 17 8.48946V5.8193C17 5.2308 16.551 4.75123 16 4.75123ZM5.31507 1.88454C5.51807 1.66665 5.78707 1.54703 6.07307 1.54703C6.35807 1.54703 6.62707 1.66665 6.83007 1.88454C7.50407 2.60868 8.17407 4.45857 7.94107 4.71597C7.94107 4.71597 7.89907 4.75122 7.75607 4.75122C7.06507 4.75122 5.74607 3.98435 5.31507 3.52081C4.89607 3.07009 4.89607 2.33526 5.31507 1.88454ZM3.00005 15.4319H8.50005V9.0235H3.00005V15.4319ZM8.50002 7.95543H2.00002V5.81931H7.75602H8.50002V7.95543ZM12.685 1.88453C12.28 1.45089 11.576 1.44982 11.17 1.88453C10.496 2.60867 9.82602 4.45856 10.058 4.71596C10.059 4.71703 10.101 4.75121 10.244 4.75121C10.935 4.75121 12.254 3.98434 12.685 3.5208C13.104 3.07008 13.104 2.33525 12.685 1.88453ZM15 15.4319H9.49997V9.0235H15V15.4319ZM9.49997 7.95543H16V5.81931H10.244H9.49997V7.95543Z" fill="#161F60"/>
<path d="M12.836 4.75123L12.7771 4.67044L12.5292 4.85123H12.836V4.75123ZM13.394 4.27381L13.3208 4.20569L13.3205 4.206L13.394 4.27381ZM13.394 1.13157L13.3208 1.19968L13.3208 1.19969L13.394 1.13157ZM10.461 1.13157L10.5342 1.19974L10.5342 1.19968L10.461 1.13157ZM9.036 4.75123V4.85123H9.14937L9.13522 4.73875L9.036 4.75123ZM8.964 4.75123L8.86477 4.73883L8.85072 4.85123H8.964V4.75123ZM7.539 1.13157L7.46579 1.19968L7.46585 1.19974L7.539 1.13157ZM4.606 1.13157L4.67921 1.19969L4.67922 1.19968L4.606 1.13157ZM4.605 4.27381L4.53175 4.34189L4.53175 4.34189L4.605 4.27381ZM5.164 4.75123V4.85123H5.47083L5.22292 4.67044L5.164 4.75123ZM2 9.02349H2.1V8.92349H2V9.02349ZM16 9.02349V8.92349H15.9V9.02349H16ZM5.31507 1.88454L5.2419 1.81637L5.24183 1.81645L5.31507 1.88454ZM6.83007 1.88454L6.90327 1.81641L6.90323 1.81637L6.83007 1.88454ZM7.94107 4.71597L8.00596 4.7933L8.01521 4.78308L7.94107 4.71597ZM5.31507 3.52081L5.24183 3.5889L5.24183 3.5889L5.31507 3.52081ZM8.50005 15.4319V15.5319H8.60005V15.4319H8.50005ZM3.00005 15.4319H2.90005V15.5319H3.00005V15.4319ZM8.50005 9.0235H8.60005V8.9235H8.50005V9.0235ZM3.00005 9.0235V8.9235H2.90005V9.0235H3.00005ZM2.00002 7.95543H1.90002V8.05543H2.00002V7.95543ZM8.50002 7.95543V8.05543H8.60002V7.95543H8.50002ZM2.00002 5.81931V5.71931H1.90002V5.81931H2.00002ZM8.50002 5.81931H8.60002V5.71931H8.50002V5.81931ZM11.17 1.88453L11.0969 1.81627L11.0968 1.81639L11.17 1.88453ZM12.685 1.88453L12.7583 1.81644L12.7581 1.81627L12.685 1.88453ZM10.058 4.71596L9.98372 4.78293L9.98503 4.78432L10.058 4.71596ZM12.685 3.5208L12.7583 3.58889L12.7583 3.58889L12.685 3.5208ZM9.49997 15.4319H9.39997V15.5319H9.49997V15.4319ZM15 15.4319V15.5319H15.1V15.4319H15ZM9.49997 9.0235V8.9235H9.39997V9.0235H9.49997ZM15 9.0235H15.1V8.9235H15V9.0235ZM16 7.95543V8.05543H16.1V7.95543H16ZM9.49997 7.95543H9.39997V8.05543H9.49997V7.95543ZM16 5.81931H16.1V5.71931H16V5.81931ZM9.49997 5.81931V5.71931H9.39997V5.81931H9.49997ZM12.836 4.85123H16V4.65123H12.836V4.85123ZM13.3205 4.206C13.1907 4.34668 13.0014 4.50681 12.7771 4.67044L12.8949 4.83203C13.1246 4.66456 13.3253 4.49573 13.4675 4.34162L13.3205 4.206ZM13.3208 1.19969C14.0911 2.0275 14.0911 3.37788 13.3208 4.20569L13.4672 4.34193C14.3089 3.43734 14.3089 1.96803 13.4672 1.06344L13.3208 1.19969ZM10.5342 1.19968C11.2786 0.399527 12.5773 0.400524 13.3208 1.19968L13.4672 1.06345C12.6447 0.179338 11.2114 0.178199 10.3878 1.06345L10.5342 1.19968ZM9.13522 4.73875C9.05943 4.13649 9.29671 3.36959 9.61709 2.68415C9.93646 2.00087 10.3272 1.42181 10.5342 1.19974L10.3878 1.06339C10.1618 1.30592 9.76054 1.90494 9.43591 2.59946C9.11229 3.29183 8.85357 4.10246 8.93678 4.76372L9.13522 4.73875ZM8.964 4.85123H9.036V4.65123H8.964V4.85123ZM7.46585 1.19974C7.67279 1.4218 8.06327 2.00085 8.38253 2.68414C8.70278 3.36958 8.94009 4.13651 8.86477 4.73883L9.06323 4.76364C9.14591 4.10244 8.88722 3.29184 8.56372 2.59948C8.23923 1.90497 7.83821 1.30594 7.61216 1.06339L7.46585 1.19974ZM4.67922 1.19968C5.4227 0.400524 6.72137 0.399527 7.46579 1.19968L7.61222 1.06345C6.78863 0.178199 5.3553 0.179338 4.53279 1.06345L4.67922 1.19968ZM4.67825 4.20573C3.90892 3.37792 3.90893 2.0275 4.67921 1.19969L4.53279 1.06344C3.69107 1.96803 3.69108 3.4373 4.53175 4.34189L4.67825 4.20573ZM5.22292 4.67044C4.99861 4.50684 4.8092 4.34662 4.67825 4.20573L4.53175 4.34189C4.6748 4.49579 4.87539 4.66453 5.10508 4.83203L5.22292 4.67044ZM2 4.85123H5.164V4.65123H2V4.85123ZM1.1 5.8193C1.1 5.27972 1.51033 4.85123 2 4.85123V4.65123C1.38767 4.65123 0.9 5.18187 0.9 5.8193H1.1ZM1.1 8.48946V5.8193H0.9V8.48946H1.1ZM1.5 8.92349C1.28533 8.92349 1.1 8.73532 1.1 8.48946H0.9C0.9 8.83317 1.16267 9.12349 1.5 9.12349V8.92349ZM2 8.92349H1.5V9.12349H2V8.92349ZM2.1 15.4319V9.02349H1.9V15.4319H2.1ZM3 16.3999C2.51033 16.3999 2.1 15.9715 2.1 15.4319H1.9C1.9 16.0693 2.38767 16.5999 3 16.5999V16.3999ZM15 16.3999H3V16.5999H15V16.3999ZM15.9 15.4319C15.9 15.9715 15.4897 16.3999 15 16.3999V16.5999C15.6123 16.5999 16.1 16.0693 16.1 15.4319H15.9ZM15.9 9.02349V15.4319H16.1V9.02349H15.9ZM16.5 8.92349H16V9.12349H16.5V8.92349ZM16.9 8.48946C16.9 8.73532 16.7147 8.92349 16.5 8.92349V9.12349C16.8373 9.12349 17.1 8.83317 17.1 8.48946H16.9ZM16.9 5.8193V8.48946H17.1V5.8193H16.9ZM16 4.85123C16.4897 4.85123 16.9 5.27972 16.9 5.8193H17.1C17.1 5.18187 16.6123 4.65123 16 4.65123V4.85123ZM6.07307 1.44703C5.75811 1.44703 5.46298 1.57908 5.2419 1.81637L5.38823 1.9527C5.57316 1.75422 5.81603 1.64703 6.07307 1.64703V1.44703ZM6.90323 1.81637C6.6822 1.57912 6.38708 1.44703 6.07307 1.44703V1.64703C6.32906 1.64703 6.57194 1.75418 6.7569 1.9527L6.90323 1.81637ZM8.01521 4.78308C8.06936 4.72325 8.08498 4.63502 8.08781 4.55358C8.09082 4.4669 8.07986 4.36283 8.05891 4.24874C8.01688 4.01988 7.93178 3.73576 7.81916 3.43973C7.59483 2.85009 7.25328 2.19246 6.90327 1.81641L6.75687 1.95267C7.08085 2.30076 7.4113 2.93014 7.63223 3.51084C7.74223 3.79997 7.82307 4.07185 7.8622 4.28487C7.88182 4.39171 7.89024 4.48006 7.88793 4.54664C7.88544 4.61846 7.87102 4.64434 7.86693 4.64886L8.01521 4.78308ZM7.75607 4.85122C7.83565 4.85122 7.89215 4.84143 7.93185 4.8291C7.95174 4.82292 7.96737 4.81612 7.97947 4.80964C7.98551 4.80641 7.99064 4.80327 7.99493 4.80037C7.99708 4.79892 7.99901 4.79754 8.00075 4.79623C8.00162 4.79558 8.00243 4.79494 8.0032 4.79433C8.00358 4.79403 8.00395 4.79373 8.00431 4.79343C8.00449 4.79329 8.00467 4.79314 8.00484 4.793C8.00493 4.79293 8.00501 4.79286 8.0051 4.79279C8.00514 4.79275 8.0052 4.7927 8.00523 4.79268C8.00529 4.79263 8.00535 4.79257 7.94107 4.71597C7.87679 4.63937 7.87685 4.63932 7.87691 4.63927C7.87693 4.63925 7.87699 4.6392 7.87703 4.63916C7.87712 4.6391 7.8772 4.63903 7.87728 4.63896C7.87744 4.63882 7.8776 4.63869 7.87776 4.63856C7.87808 4.6383 7.87839 4.63805 7.87869 4.63782C7.87929 4.63734 7.87985 4.63691 7.88037 4.63651C7.88142 4.63572 7.88232 4.63509 7.88304 4.6346C7.88448 4.63363 7.8852 4.63325 7.88507 4.63332C7.88483 4.63345 7.88102 4.63546 7.87254 4.6381C7.85548 4.64339 7.81949 4.65122 7.75607 4.65122V4.85122ZM5.24183 3.5889C5.46834 3.83251 5.91703 4.1463 6.39116 4.39816C6.62951 4.52477 6.8774 4.6374 7.11091 4.71861C7.34303 4.79933 7.56718 4.85122 7.75607 4.85122V4.65122C7.59946 4.65122 7.39961 4.60725 7.1766 4.5297C6.95499 4.45263 6.71663 4.34458 6.48498 4.22153C6.01911 3.97406 5.5928 3.67265 5.3883 3.45272L5.24183 3.5889ZM5.24183 1.81645C4.78715 2.30555 4.78715 3.09979 5.24183 3.5889L5.38831 3.45272C5.00499 3.04038 5.00499 2.36497 5.38831 1.95262L5.24183 1.81645ZM8.50005 15.3319H3.00005V15.5319H8.50005V15.3319ZM8.40005 9.0235V15.4319H8.60005V9.0235H8.40005ZM3.00005 9.1235H8.50005V8.9235H3.00005V9.1235ZM3.10005 15.4319V9.0235H2.90005V15.4319H3.10005ZM2.00002 8.05543H8.50002V7.85543H2.00002V8.05543ZM1.90002 5.81931V7.95543H2.10002V5.81931H1.90002ZM7.75602 5.71931H2.00002V5.91931H7.75602V5.71931ZM8.50002 5.71931H7.75602V5.91931H8.50002V5.71931ZM8.60002 7.95543V5.81931H8.40002V7.95543H8.60002ZM11.2431 1.95278C11.6095 1.56047 12.2464 1.5614 12.6119 1.95278L12.7581 1.81627C12.3136 1.34038 11.5425 1.33917 11.0969 1.81627L11.2431 1.95278ZM10.1323 4.64901C10.1283 4.64453 10.1139 4.61863 10.1115 4.54675C10.1093 4.48014 10.1178 4.39177 10.1375 4.28492C10.1767 4.07187 10.2577 3.79998 10.3677 3.51085C10.5888 2.93013 10.9192 2.30075 11.2432 1.95266L11.0968 1.81639C10.7468 2.19245 10.4053 2.85008 10.1808 3.4397C10.0681 3.73573 9.98294 4.01983 9.94077 4.24867C9.91974 4.36275 9.9087 4.46679 9.9116 4.55345C9.91433 4.63483 9.92978 4.72305 9.98374 4.78291L10.1323 4.64901ZM10.244 4.65121C10.1803 4.65121 10.1442 4.64358 10.1269 4.63832C10.1183 4.63571 10.1145 4.63372 10.1143 4.63361C10.1142 4.63355 10.1151 4.63399 10.1167 4.63511C10.1175 4.63566 10.1186 4.63647 10.1201 4.63759C10.1208 4.63813 10.1217 4.6389 10.1229 4.6399C10.1235 4.64038 10.1243 4.64111 10.1253 4.64202C10.1259 4.64255 10.1282 4.64466 10.131 4.6476L9.98503 4.78432C9.98937 4.78895 9.99337 4.79226 9.99355 4.79242C9.99495 4.7936 9.99623 4.79464 9.99733 4.79548C9.99955 4.79721 10.0018 4.79887 10.0042 4.80046C10.0089 4.80365 10.0143 4.80694 10.0205 4.81023C10.0329 4.81683 10.0487 4.82359 10.0686 4.82965C10.1084 4.84175 10.1647 4.85121 10.244 4.85121V4.65121ZM12.6118 3.45271C12.4073 3.67264 11.981 3.97405 11.5151 4.22152C11.2835 4.34457 11.0451 4.45262 10.8235 4.52969C10.6005 4.60724 10.4006 4.65121 10.244 4.65121V4.85121C10.4329 4.85121 10.6571 4.79932 10.8892 4.71859C11.1227 4.63739 11.3706 4.52476 11.6089 4.39815C12.0831 4.14629 12.5318 3.83249 12.7583 3.58889L12.6118 3.45271ZM12.6118 1.95261C12.9951 2.36495 12.9951 3.04037 12.6118 3.45271L12.7583 3.58889C13.2129 3.09978 13.2129 2.30554 12.7583 1.81644L12.6118 1.95261ZM9.49997 15.5319H15V15.3319H9.49997V15.5319ZM9.39997 9.0235V15.4319H9.59997V9.0235H9.39997ZM15 8.9235H9.49997V9.1235H15V8.9235ZM15.1 15.4319V9.0235H14.9V15.4319H15.1ZM16 7.85543H9.49997V8.05543H16V7.85543ZM15.9 5.81931V7.95543H16.1V5.81931H15.9ZM10.244 5.91931H16V5.71931H10.244V5.91931ZM9.49997 5.91931H10.244V5.71931H9.49997V5.91931ZM9.59997 7.95543V5.81931H9.39997V7.95543H9.59997Z" fill="#603ABB"/>
</svg>
