<svg width="10" height="10" viewBox="0 0 10 10" fill="none" xmlns="http://www.w3.org/2000/svg">
<path fill-rule="evenodd" clip-rule="evenodd" d="M4.58333 1.28283C2.51227 1.28283 0.833333 2.96176 0.833333 5.03283C0.833333 7.10389 2.51227 8.78283 4.58333 8.78283C6.6544 8.78283 8.33333 7.10389 8.33333 5.03283C8.33333 2.96176 6.6544 1.28283 4.58333 1.28283ZM0 5.03283C0 2.50152 2.05203 0.449493 4.58333 0.449493C7.11464 0.449493 9.16667 2.50152 9.16667 5.03283C9.16667 7.56413 7.11464 9.61616 4.58333 9.61616C2.05203 9.61616 0 7.56413 0 5.03283Z" fill="#8186A8"/>
<path fill-rule="evenodd" clip-rule="evenodd" d="M4.58333 2.11616C4.81345 2.11616 5 2.30271 5 2.53283V4.77531L6.43634 5.49348C6.64216 5.59639 6.72559 5.84667 6.62268 6.0525C6.51977 6.25832 6.26948 6.34175 6.06366 6.23884L4.39699 5.4055C4.25583 5.33492 4.16667 5.19065 4.16667 5.03283V2.53283C4.16667 2.30271 4.35321 2.11616 4.58333 2.11616Z" fill="#8186A8"/>
</svg>
