<svg width="9" height="10" viewBox="0 0 9 10" fill="none" xmlns="http://www.w3.org/2000/svg">
<path fill-rule="evenodd" clip-rule="evenodd" d="M1.66699 2.11616C1.43687 2.11616 1.25033 2.30271 1.25033 2.53283V8.36616C1.25033 8.59628 1.43687 8.78283 1.66699 8.78283H7.50033C7.73044 8.78283 7.91699 8.59628 7.91699 8.36616V2.53283C7.91699 2.30271 7.73044 2.11616 7.50033 2.11616H1.66699ZM0.416992 2.53283C0.416992 1.84247 0.976636 1.28283 1.66699 1.28283H7.50033C8.19068 1.28283 8.75033 1.84247 8.75033 2.53283V8.36616C8.75033 9.05652 8.19068 9.61616 7.50033 9.61616H1.66699C0.976636 9.61616 0.416992 9.05652 0.416992 8.36616V2.53283Z" fill="#8186A8"/>
<path fill-rule="evenodd" clip-rule="evenodd" d="M6.25033 0.449493C6.48044 0.449493 6.66699 0.636041 6.66699 0.86616V2.53283C6.66699 2.76295 6.48044 2.94949 6.25033 2.94949C6.02021 2.94949 5.83366 2.76295 5.83366 2.53283V0.86616C5.83366 0.636041 6.02021 0.449493 6.25033 0.449493Z" fill="#8186A8"/>
<path fill-rule="evenodd" clip-rule="evenodd" d="M2.91699 0.449493C3.14711 0.449493 3.33366 0.636041 3.33366 0.86616V2.53283C3.33366 2.76295 3.14711 2.94949 2.91699 2.94949C2.68687 2.94949 2.50033 2.76295 2.50033 2.53283V0.86616C2.50033 0.636041 2.68687 0.449493 2.91699 0.449493Z" fill="#8186A8"/>
<path fill-rule="evenodd" clip-rule="evenodd" d="M0.416992 4.19949C0.416992 3.96937 0.60354 3.78283 0.833659 3.78283H8.33366C8.56378 3.78283 8.75033 3.96937 8.75033 4.19949C8.75033 4.42961 8.56378 4.61616 8.33366 4.61616H0.833659C0.60354 4.61616 0.416992 4.42961 0.416992 4.19949Z" fill="#8186A8"/>
</svg>
