<svg width="16" height="17" viewBox="0 0 16 17" fill="none" xmlns="http://www.w3.org/2000/svg">
<path fill-rule="evenodd" clip-rule="evenodd" d="M14.9274 4.48423C14.212 3.25862 13.2416 2.28822 12.0159 1.57286C10.79 0.85753 9.45183 0.499939 8.00026 0.499939C6.54883 0.499939 5.21037 0.85753 3.98457 1.57286C2.75884 2.28812 1.78844 3.25851 1.07303 4.48423C0.357593 5.71003 0 7.04863 0 8.49994C0 9.95125 0.357702 11.2897 1.07293 12.5156C1.78829 13.7409 2.75869 14.7116 3.98442 15.427C5.21022 16.1423 6.54872 16.4999 8.00011 16.4999C9.4515 16.4999 10.7901 16.1423 12.0159 15.427C13.2415 14.7118 14.2119 13.7412 14.9272 12.5156C15.6424 11.2897 16 9.95114 16 8.49994C16 7.04863 15.6424 5.70984 14.9274 4.48423ZM9.00083 12.7091C8.938 12.6342 8.91218 12.5704 8.92296 12.5177C8.91234 12.5457 8.88966 12.5712 8.855 12.5943C8.8203 12.5527 8.75758 12.5006 8.66743 12.4382C8.57702 12.3754 8.51463 12.3235 8.47989 12.2816C8.46588 12.2608 8.44695 12.2314 8.42257 12.1932C8.39824 12.155 8.36704 12.1046 8.32884 12.0421C8.29086 11.9796 8.26313 11.9257 8.24569 11.8805C8.22843 11.8353 8.22683 11.8093 8.24044 11.8026C8.10858 11.8583 7.91754 11.8201 7.66758 11.6879C7.61902 11.6602 7.54598 11.5873 7.44882 11.4692C7.35166 11.3511 7.25092 11.2991 7.14672 11.3129C7.11206 11.3198 7.06514 11.332 7.00607 11.3493C6.94714 11.3668 6.89676 11.3753 6.85505 11.3753C6.81335 11.3753 6.75778 11.3616 6.68831 11.3336C6.63286 11.3129 6.55821 11.2728 6.46444 11.2139C6.37075 11.1549 6.30642 11.1182 6.2718 11.1046L6.1364 11.0317L5.96974 10.9485C5.92803 10.9278 5.88458 10.8948 5.83945 10.8497C5.79431 10.8045 5.76491 10.7575 5.75101 10.7089C5.73714 10.6674 5.71977 10.584 5.69894 10.4589C5.67811 10.3337 5.65027 10.2436 5.61561 10.1881C5.57401 10.1188 5.51498 10.0493 5.43851 9.97989C5.36222 9.91049 5.29279 9.8755 5.23025 9.8755C5.28585 9.8755 5.28585 9.82895 5.23025 9.73493C5.17465 9.64101 5.12605 9.57333 5.08434 9.53192C5.07044 9.51791 5.02874 9.47285 4.95931 9.39631C4.88988 9.31987 4.83084 9.25409 4.78225 9.19827C4.73368 9.14274 4.69184 9.07856 4.65721 9.00551C4.62255 8.93258 4.61551 8.87191 4.63638 8.8232C4.64327 8.81634 4.63638 8.80583 4.61551 8.792C4.59468 8.77829 4.56873 8.76416 4.53739 8.7503C4.5062 8.73655 4.47664 8.72432 4.44895 8.71385C4.42104 8.7036 4.40021 8.69835 4.38638 8.69835C4.40035 8.72633 4.41593 8.77653 4.43334 8.84943C4.4507 8.92247 4.46979 8.97633 4.49058 9.01102C4.50456 9.03875 4.56352 9.1396 4.66768 9.3129C4.84836 9.60456 4.93154 9.82008 4.91775 9.95891C4.87605 9.97266 4.84821 9.96588 4.83435 9.93819C4.82045 9.91049 4.80994 9.87226 4.80308 9.82359C4.79615 9.77513 4.78929 9.74044 4.78221 9.71946C4.76138 9.67775 4.70756 9.63255 4.62069 9.58384C4.53393 9.53543 4.48004 9.48672 4.45924 9.43801C4.46625 9.43801 4.47478 9.43476 4.48529 9.42754C4.49576 9.42057 4.50452 9.41732 4.51138 9.41732C4.51842 9.35486 4.48197 9.27499 4.40207 9.17758C4.32217 9.08045 4.28933 9.01106 4.30312 8.96932C4.24752 8.92762 4.19892 8.84596 4.15722 8.72462C4.11555 8.60301 4.08078 8.52482 4.05301 8.49005C4.02528 8.44853 3.99066 8.41208 3.94892 8.38074C3.90722 8.34958 3.85523 8.31489 3.79265 8.27665C3.73015 8.23845 3.68845 8.21247 3.66762 8.19853C3.65368 8.19171 3.62599 8.16059 3.58429 8.10499C3.35516 7.82712 3.28573 7.67778 3.37603 7.65698C3.28576 7.67778 3.21108 7.61014 3.15204 7.45376C3.09297 7.29757 3.07393 7.17764 3.09473 7.09435L3.07393 7.08398C3.08093 7.05615 3.08436 6.97468 3.08436 6.83913C3.08436 6.70366 3.09312 6.58038 3.11045 6.46932C3.12675 6.36548 3.1566 6.31009 3.20008 6.30329C3.15615 6.30364 3.12284 6.25994 3.10009 6.17244C3.07579 6.0786 3.07407 6.01431 3.09483 5.97965C3.10177 5.95878 3.13311 5.97283 3.1886 6.02135C3.24406 6.06981 3.27536 6.10126 3.2823 6.11505C3.3726 6.0663 3.40737 6.00391 3.3865 5.92744C3.3726 5.89971 3.29966 5.82681 3.16773 5.70868C2.86906 5.51432 2.71623 5.42052 2.7094 5.42737C2.75092 5.35108 2.74056 5.28512 2.67806 5.22948C2.60867 5.27118 2.56875 5.28154 2.55828 5.26082C2.54792 5.23995 2.53924 5.2019 2.53219 5.14626C2.52533 5.09076 2.50789 5.05953 2.4802 5.05256C2.44543 5.04563 2.40373 5.0179 2.35517 4.96927C2.97319 3.98314 3.78915 3.21232 4.80308 2.65665C4.84471 2.64979 4.92107 2.64629 5.03217 2.64629C5.08767 2.65322 5.1398 2.67063 5.18836 2.69835C5.237 2.72608 5.28739 2.76436 5.33938 2.81292C5.39155 2.86137 5.43147 2.89614 5.4592 2.91701C5.4731 2.87531 5.45577 2.81281 5.40717 2.72948C5.42096 2.68777 5.4974 2.64607 5.6363 2.60444C5.79592 2.58361 5.90019 2.587 5.94876 2.61491C5.90716 2.55238 5.83777 2.46554 5.7405 2.35448L5.68843 2.40647C5.63283 2.35791 5.48711 2.38217 5.25094 2.47941C5.23715 2.48627 5.20237 2.50549 5.14677 2.53665C5.09128 2.56785 5.046 2.59047 5.01137 2.60433C4.96967 2.61823 4.92804 2.6217 4.88634 2.61477C5.21963 2.43427 5.5461 2.29169 5.86561 2.18763C5.88626 2.20143 5.92106 2.23098 5.9697 2.27607C6.01826 2.32121 6.05646 2.35426 6.08426 2.37502C6.06343 2.36123 6.04949 2.36802 6.04256 2.39586C6.01483 2.47915 6.01483 2.54858 6.04256 2.60411C6.07722 2.65286 6.12414 2.68048 6.18321 2.68752C6.24228 2.69438 6.31339 2.69095 6.39672 2.67701C6.48006 2.66322 6.5357 2.65618 6.56346 2.65618L6.66766 2.66669C6.87742 2.68636 6.96657 2.66888 6.93497 2.6142C6.95419 2.64476 6.9762 2.69866 7.00096 2.7761C7.02869 2.86294 7.06003 2.92372 7.09465 2.95846C7.12942 2.93055 7.13635 2.88198 7.11549 2.81255C7.09465 2.74312 7.09465 2.69438 7.11549 2.66665C7.12234 2.65286 7.14321 2.63881 7.17798 2.62495C7.21276 2.61116 7.25263 2.59554 7.2978 2.57817C7.34294 2.56073 7.37245 2.54862 7.38646 2.54172C7.42809 2.51389 7.40025 2.46525 7.30306 2.39582C7.28916 2.38885 7.25971 2.37845 7.21462 2.36455C7.16948 2.35087 7.12946 2.33679 7.0948 2.32296C7.06014 2.30917 7.02369 2.29001 6.98549 2.26571C6.94729 2.24138 6.92988 2.21365 6.93328 2.18231C6.93678 2.15097 6.95597 2.11113 6.9906 2.06249C7.0323 2.02787 7.10005 2.01393 7.19375 2.02086C7.28744 2.02772 7.3587 2.04505 7.40726 2.07285C7.59487 2.17705 7.62256 2.27097 7.49066 2.35415C7.56021 2.36101 7.64354 2.38881 7.74074 2.43738C7.83786 2.48605 7.87606 2.53815 7.8553 2.59375C7.91087 2.48959 7.96636 2.43738 8.022 2.43738C8.05666 2.44442 8.08979 2.49134 8.12095 2.57814C8.15214 2.6649 8.17119 2.71174 8.17809 2.71879C8.23376 2.79508 8.28896 2.81248 8.3449 2.77078C8.40035 2.72915 8.45778 2.6684 8.51671 2.5885C8.57112 2.51481 8.60342 2.47808 8.61355 2.47836C8.54605 2.45098 8.53948 2.42342 8.59489 2.39589C8.69877 2.33339 8.79268 2.31599 8.87609 2.3439C8.89677 2.35769 8.92476 2.38903 8.9592 2.43749C9.02152 2.56267 9.01116 2.62159 8.92801 2.61466C8.99043 2.67026 9.0163 2.73977 9.00619 2.82299C8.99572 2.90632 8.94161 2.94456 8.84449 2.93755C8.8099 2.93755 8.75933 2.92011 8.69326 2.88549C8.62733 2.85083 8.57702 2.83178 8.54217 2.82824C8.50747 2.82463 8.45877 2.84378 8.39634 2.88549C8.36861 2.92026 8.33216 2.97933 8.28696 3.06259C8.24179 3.14606 8.2018 3.20499 8.1671 3.23965C8.06381 3.34301 7.89191 3.38149 7.65181 3.35485C7.66648 3.35862 7.6628 3.37924 7.64095 3.41675C7.61654 3.45838 7.5837 3.50533 7.542 3.55736C7.5003 3.60943 7.476 3.63894 7.46914 3.64588C7.4066 3.71531 7.36497 3.79521 7.3441 3.88547C7.3441 3.89937 7.3406 3.94629 7.33359 4.02605C7.32655 4.10595 7.31276 4.16681 7.29189 4.2084C7.37522 4.18757 7.44123 4.22938 7.48979 4.33344C7.53149 4.43071 7.53149 4.48277 7.48979 4.48978C7.71903 4.45519 7.92042 4.46898 8.09417 4.53148C8.34413 4.62174 8.48671 4.71201 8.52141 4.80231C8.5629 4.73974 8.66352 4.7362 8.82333 4.7918C8.88586 4.82646 8.94118 4.93077 8.9901 5.10426C9.01783 5.20835 9.06479 5.29873 9.13072 5.37505C9.19679 5.45142 9.26783 5.47221 9.34434 5.43755L9.37546 5.41672C9.4033 5.40293 9.42577 5.39071 9.44311 5.38031C9.46058 5.36995 9.47955 5.35601 9.50028 5.33861C9.52126 5.32124 9.53348 5.30562 9.53673 5.29183C9.53997 5.27797 9.53498 5.26392 9.52126 5.25013C9.47255 5.20843 9.4361 5.15118 9.41187 5.07836C9.38779 5.00542 9.39301 4.94114 9.42764 4.8855C9.44832 4.85777 9.50393 4.81606 9.59416 4.76046C9.68457 4.70482 9.74013 4.64933 9.76082 4.59376C9.78895 4.5035 9.75396 4.42881 9.6568 4.3697C9.55957 4.31078 9.51086 4.25697 9.51086 4.20826C9.51086 4.17349 9.53344 4.13189 9.5785 4.08322C9.62382 4.03466 9.64294 3.98938 9.63582 3.94783C9.63582 3.92685 9.62356 3.88354 9.59934 3.81754C9.57526 3.75143 9.56114 3.70287 9.55774 3.67163C9.55424 3.64037 9.57 3.60392 9.60455 3.56232C9.65301 3.53449 9.76764 3.53624 9.94817 3.56743C10.1287 3.59877 10.2469 3.63176 10.3026 3.66638C10.3235 3.68017 10.3686 3.70104 10.438 3.72892C10.5074 3.7565 10.5682 3.78601 10.6205 3.81739C10.6723 3.84859 10.7018 3.87799 10.7087 3.90583H10.6568C10.7053 3.94764 10.7349 3.9961 10.7452 4.05174C10.7557 4.10749 10.7297 4.14904 10.6673 4.17692C10.7087 4.16988 10.7645 4.18035 10.8339 4.20811C10.9451 4.24974 10.9486 4.28801 10.8444 4.32268C10.8651 4.31563 10.8946 4.30881 10.9327 4.30181C10.9709 4.29487 11.0003 4.2844 11.0212 4.27061C11.035 4.26361 11.0524 4.25157 11.0732 4.23413C11.0941 4.21676 11.1096 4.20629 11.1201 4.20297C11.1306 4.19954 11.1461 4.19593 11.167 4.19246C11.1878 4.18903 11.2085 4.19428 11.2292 4.20808C11.2365 4.20808 11.2519 4.19067 11.2762 4.15601C11.3002 4.12139 11.3266 4.08662 11.3542 4.05196C11.3821 4.01729 11.4062 3.99996 11.4271 3.99996C11.4477 3.99996 11.467 4.0085 11.4842 4.02587C11.5018 4.04331 11.5154 4.06232 11.5259 4.08319C11.5364 4.10406 11.5466 4.12664 11.5571 4.15079C11.5676 4.17509 11.5761 4.19432 11.5831 4.20811C11.5968 4.24277 11.63 4.27937 11.682 4.31742C11.7339 4.35551 11.7669 4.39207 11.7808 4.42673C11.7878 4.4476 11.8014 4.4997 11.8224 4.58314C11.8432 4.66648 11.8711 4.72372 11.9057 4.75492C11.9404 4.78626 11.9925 4.81223 12.0619 4.83303C12.0758 4.84007 12.1072 4.83653 12.1556 4.82274C12.2041 4.80877 12.2442 4.8053 12.2754 4.81223C12.3068 4.81909 12.3223 4.84682 12.3223 4.89557C12.3639 4.85386 12.3846 4.82603 12.3846 4.81223C12.3917 4.90253 12.4141 4.97551 12.4526 5.031C12.4908 5.08646 12.5514 5.1109 12.6348 5.10386L12.6139 5.3331C12.5931 5.36776 12.5411 5.39373 12.4576 5.41107C12.3742 5.42851 12.3222 5.44423 12.3012 5.45802C12.2805 5.46495 12.2301 5.50662 12.1501 5.58309C12.0702 5.65957 12.0375 5.7047 12.0513 5.71849C11.9334 5.58652 11.7561 5.54832 11.5201 5.60393C11.2563 5.64559 11.0756 5.68726 10.9784 5.72896C10.8674 5.7846 10.7909 5.83659 10.7492 5.88515C10.7422 5.89209 10.7303 5.91649 10.7129 5.95809C10.6955 5.99972 10.6782 6.03799 10.6609 6.07265C10.6461 6.10186 10.6329 6.11879 10.6208 6.12339C10.6609 6.11436 10.7054 6.08166 10.7547 6.02584C10.8069 5.96677 10.8399 5.93393 10.8536 5.92689C11.034 5.8089 11.1833 5.7672 11.3021 5.80273C11.4548 5.84444 11.4792 5.90004 11.3749 5.96947C11.3613 5.98326 11.3246 5.98848 11.2657 5.98509C11.2067 5.98166 11.1667 5.98326 11.1458 5.99034C11.2085 6.00413 11.2604 6.02329 11.3024 6.04744C11.3438 6.07174 11.3543 6.10476 11.3334 6.14639C11.4445 6.20892 11.4654 6.27836 11.396 6.35483C11.3074 6.44346 11.2025 6.48177 11.0805 6.47015C11.0937 6.47342 11.0913 6.48709 11.0731 6.51106L10.8958 6.62562C10.8821 6.63244 10.8369 6.64977 10.7605 6.67769C10.6841 6.70527 10.6319 6.73675 10.6042 6.77138C10.5835 6.79918 10.573 6.84081 10.573 6.89656C10.573 6.9522 10.5695 6.9939 10.5625 7.02163C10.5557 7.04954 10.5278 7.05626 10.4794 7.04246C10.4584 7.08409 10.3942 7.11711 10.2866 7.14127C10.1789 7.16557 10.1078 7.20201 10.0731 7.25058C10.1145 7.30622 10.1113 7.36171 10.0626 7.41731C9.97915 7.48685 9.90625 7.47981 9.84382 7.39648C9.80913 7.41038 9.783 7.44504 9.76564 7.50068C9.74841 7.55629 9.72222 7.59449 9.6877 7.61525C9.73641 7.69165 9.72919 7.74736 9.66702 7.78191C9.67377 7.78191 9.68949 7.78895 9.71368 7.80278C9.73791 7.81664 9.76388 7.83397 9.79187 7.85484C9.8196 7.87571 9.83678 7.88618 9.84382 7.88618C9.8161 7.94854 9.77775 7.97977 9.72919 7.97977C9.77089 8.09094 9.71894 8.21254 9.57314 8.3444C9.54512 8.37213 9.5017 8.39986 9.44278 8.42773C9.38345 8.45546 9.32978 8.47797 9.28107 8.49538C9.23237 8.51278 9.20478 8.52489 9.19781 8.53183C9.12838 8.59444 9.07617 8.65861 9.04162 8.72454C9.00703 8.79062 9.00178 8.85476 9.02586 8.91733C9.05023 8.98001 9.11441 9.02146 9.21876 9.04244L9.22886 9.1257V9.31312L9.23934 9.39653C9.24645 9.44509 9.2517 9.48854 9.2551 9.52685C9.25849 9.56509 9.25849 9.6135 9.2551 9.67268C9.2517 9.73161 9.23601 9.7647 9.20829 9.77145C9.1807 9.77856 9.14247 9.77145 9.09376 9.75062C9.03797 9.72289 8.97215 9.57009 8.89561 9.29236C8.88174 9.22297 8.83993 9.13978 8.7705 9.0424C8.7358 9.0771 8.70632 9.09957 8.68209 9.10997C8.65798 9.12044 8.64036 9.12234 8.63025 9.11522C8.61978 9.10837 8.60066 9.09264 8.57286 9.06841C8.54513 9.04419 8.52101 9.02496 8.50007 9.01124C8.46533 8.99052 8.40466 8.97301 8.31764 8.95929C8.23099 8.94542 8.17688 8.92795 8.1563 8.90722C7.98946 9.03244 7.88868 9.00095 7.85402 8.81371C7.84023 8.8483 7.84191 8.89511 7.85928 8.95433C7.87672 9.01336 7.88536 9.04623 7.88536 9.0532C7.8368 9.14361 7.76044 9.15032 7.65623 9.07392C7.61453 9.03244 7.51901 9.02722 7.36968 9.05842C7.22936 9.08766 7.13353 9.09403 7.08218 9.07741C7.0899 9.08204 7.10065 9.09129 7.11454 9.10523C7.13533 9.11884 7.14931 9.12934 7.1562 9.13635C7.1492 9.16422 7.13884 9.18491 7.12486 9.19878C7.11092 9.21253 7.09702 9.21778 7.0832 9.21454C7.06929 9.21104 7.05368 9.21104 7.03624 9.21454C7.01887 9.21778 7.00329 9.223 6.98936 9.23001C6.96159 9.25073 6.92693 9.28718 6.88523 9.33924C6.8436 9.39135 6.81237 9.42429 6.79153 9.43801C6.83313 9.54914 6.85228 9.6343 6.84885 9.69322C6.84524 9.7524 6.83495 9.8392 6.81751 9.95369C6.80007 10.0682 6.79142 10.1603 6.79142 10.2299C6.79142 10.3407 6.82444 10.4696 6.89037 10.6152C6.95637 10.761 7.03445 10.8617 7.12475 10.9173C7.1735 10.9451 7.25687 10.9623 7.37482 10.9692C7.49285 10.9763 7.57622 10.9692 7.62478 10.9485C7.66649 10.9279 7.69765 10.9034 7.71848 10.8757C7.73931 10.8479 7.75675 10.8077 7.77054 10.7558C7.78444 10.7039 7.79495 10.6674 7.80188 10.6467C7.85045 10.5146 7.94071 10.4452 8.0725 10.4382C8.15616 10.4312 8.21658 10.4402 8.25503 10.4642C8.29323 10.4885 8.30874 10.5214 8.30173 10.5632C8.29473 10.6047 8.2809 10.6482 8.26025 10.6934C8.23931 10.7386 8.21333 10.7888 8.18202 10.8445C8.15098 10.9003 8.13175 10.9419 8.12504 10.9697C8.11113 11.0253 8.0988 11.1033 8.08859 11.2042C8.07812 11.3048 8.06932 11.3657 8.06235 11.3866C8.07636 11.3934 8.12836 11.3969 8.21855 11.3969C8.21855 11.3831 8.2238 11.3604 8.23427 11.3292C8.24452 11.298 8.24978 11.2789 8.24978 11.272C8.28462 11.3277 8.34019 11.3587 8.41659 11.3657C8.49299 11.3726 8.54867 11.3449 8.58336 11.2824C8.59737 11.3032 8.63904 11.3554 8.70851 11.4388C8.7779 11.522 8.8161 11.5914 8.82315 11.6471C8.83011 11.6751 8.84383 11.72 8.86459 11.7827C8.88557 11.8451 8.89258 11.8886 8.88557 11.913C8.8786 11.937 8.84383 11.9494 8.78144 11.9494C8.75371 11.9494 8.73627 11.9598 8.72949 11.9806C8.72226 12.0015 8.72226 12.0274 8.72949 12.0586C8.73649 12.0898 8.74525 12.1194 8.75547 12.1471C8.76583 12.1747 8.77969 12.2045 8.79695 12.2357C8.81464 12.2667 8.82318 12.2859 8.82318 12.2928C8.94804 12.5218 9.11835 12.5844 9.33358 12.4804C9.33358 12.6817 9.28491 12.7928 9.18749 12.8135C9.13258 12.8273 9.07026 12.7922 9.00083 12.7091ZM6.9281 2.60411C6.93035 2.60713 6.93264 2.6105 6.93497 2.6142C6.9331 2.61097 6.93081 2.60761 6.9281 2.60411ZM9.13645 14.8961C9.13568 14.9375 9.14268 14.993 9.1564 15.0624C10.5869 14.8124 11.8059 14.1562 12.8121 13.093C12.7913 13.0724 12.7478 13.0567 12.6819 13.0462C12.6157 13.036 12.5725 13.0236 12.5515 13.0099C12.4264 12.9613 12.3433 12.9337 12.3016 12.9267C12.3086 12.8781 12.2995 12.833 12.2753 12.791C12.2513 12.7497 12.2237 12.7182 12.1922 12.6975C12.161 12.6768 12.1175 12.6491 12.0618 12.6144C12.0064 12.5796 11.9682 12.5552 11.9472 12.5414C11.9337 12.5277 11.9093 12.5067 11.8746 12.479C11.8398 12.4512 11.8156 12.4321 11.8016 12.4218C11.7879 12.4114 11.7617 12.3958 11.7237 12.375C11.6858 12.3541 11.6559 12.3472 11.6352 12.3541C11.6144 12.3612 11.5796 12.3646 11.5312 12.3646L11.5 12.375C11.479 12.3821 11.46 12.3905 11.4428 12.4009C11.4253 12.4114 11.4063 12.4218 11.3856 12.4321C11.3646 12.4426 11.3509 12.453 11.3439 12.4633C11.3369 12.4738 11.3369 12.4824 11.3439 12.4895C11.1981 12.3714 11.0729 12.295 10.9688 12.2603C10.9341 12.2534 10.8959 12.2343 10.8542 12.2031C10.8127 12.1716 10.7763 12.1477 10.7448 12.1303C10.7137 12.1127 10.6791 12.1074 10.6409 12.1147C10.6026 12.1214 10.5628 12.1459 10.5211 12.1874C10.4865 12.2223 10.4656 12.2744 10.4585 12.3438C10.4517 12.4132 10.4449 12.4585 10.4378 12.4795C10.3891 12.4447 10.3891 12.3839 10.4378 12.297C10.4865 12.2101 10.4933 12.1459 10.4585 12.1042C10.4378 12.0625 10.4015 12.047 10.3493 12.0575C10.297 12.0678 10.2557 12.0834 10.2243 12.1042C10.193 12.125 10.153 12.1544 10.1043 12.1926C10.0558 12.2309 10.0244 12.2534 10.0108 12.2603C9.99692 12.2673 9.96744 12.2862 9.92227 12.3174C9.87703 12.3488 9.84758 12.3748 9.83357 12.3956C9.81314 12.4235 9.79212 12.465 9.7714 12.5207C9.75046 12.5762 9.7332 12.6145 9.71934 12.6351C9.70547 12.6076 9.66556 12.5849 9.59959 12.5677C9.54149 12.5525 9.50901 12.5359 9.50194 12.518C9.50144 12.5155 9.50095 12.5129 9.50046 12.5105C9.50046 12.513 9.50095 12.5155 9.50194 12.518C9.51542 12.5885 9.52893 12.7075 9.54216 12.8751C9.55592 13.0487 9.57339 13.1807 9.59437 13.271C9.64283 13.4861 9.60134 13.653 9.46927 13.7711C9.28173 13.9446 9.1811 14.0835 9.16713 14.1877C9.13962 14.3405 9.18125 14.4308 9.29235 14.4586C9.29235 14.5071 9.26462 14.5784 9.20909 14.6721C9.15367 14.7657 9.12919 14.8404 9.13645 14.8961Z" fill="white"/>
</svg>
